<mxfile host="app.diagrams.net" modified="2024-04-08T15:50:43.355Z" agent="Mozilla/5.0 (Windows NT 10.0; Win64; x64) AppleWebKit/537.36 (KHTML, like Gecko) Chrome/123.0.0.0 Safari/537.36" etag="uYSWPYG5gJ5B6GBTUMrn" version="24.2.2" type="device">
  <diagram name="Page-1" id="gfBPRSnI_GUrFYi8_Cs0">
    <mxGraphModel dx="1562" dy="810" grid="1" gridSize="10" guides="1" tooltips="1" connect="1" arrows="1" fold="1" page="1" pageScale="1" pageWidth="850" pageHeight="1100" math="0" shadow="0">
      <root>
        <mxCell id="0" />
        <mxCell id="1" parent="0" />
        <mxCell id="i_BdbYn4SVfui-p-9MxM-5" style="edgeStyle=orthogonalEdgeStyle;rounded=0;orthogonalLoop=1;jettySize=auto;html=1;" edge="1" parent="1" source="i_BdbYn4SVfui-p-9MxM-1" target="i_BdbYn4SVfui-p-9MxM-4">
          <mxGeometry relative="1" as="geometry" />
        </mxCell>
        <mxCell id="i_BdbYn4SVfui-p-9MxM-1" value="&lt;b&gt;pipeline-cfn&lt;/b&gt;&lt;div&gt;&lt;b&gt;.yaml&lt;/b&gt;&lt;/div&gt;" style="whiteSpace=wrap;html=1;shape=mxgraph.basic.document" vertex="1" parent="1">
          <mxGeometry x="60" y="110" width="80" height="80" as="geometry" />
        </mxCell>
        <mxCell id="i_BdbYn4SVfui-p-9MxM-16" style="edgeStyle=orthogonalEdgeStyle;rounded=0;orthogonalLoop=1;jettySize=auto;html=1;entryX=0;entryY=0.5;entryDx=0;entryDy=0;" edge="1" parent="1" source="i_BdbYn4SVfui-p-9MxM-2" target="i_BdbYn4SVfui-p-9MxM-7">
          <mxGeometry relative="1" as="geometry" />
        </mxCell>
        <mxCell id="i_BdbYn4SVfui-p-9MxM-2" value="&lt;font style=&quot;font-size: 14px;&quot;&gt;&lt;b&gt;AWS CloudFormation&lt;/b&gt;&lt;/font&gt;" style="outlineConnect=0;dashed=0;verticalLabelPosition=bottom;verticalAlign=top;align=center;html=1;shape=mxgraph.aws3.stack_aws_cloudformation;fillColor=#759C3E;gradientColor=none;" vertex="1" parent="1">
          <mxGeometry x="380" y="110" width="80" height="80" as="geometry" />
        </mxCell>
        <mxCell id="i_BdbYn4SVfui-p-9MxM-4" value="&lt;font style=&quot;font-size: 14px;&quot;&gt;&lt;b&gt;Github&lt;/b&gt;&lt;/font&gt;" style="dashed=0;outlineConnect=0;html=1;align=center;labelPosition=center;verticalLabelPosition=bottom;verticalAlign=top;shape=mxgraph.weblogos.github" vertex="1" parent="1">
          <mxGeometry x="230" y="110" width="80" height="80" as="geometry" />
        </mxCell>
        <mxCell id="i_BdbYn4SVfui-p-9MxM-7" value="&lt;font size=&quot;1&quot; style=&quot;&quot;&gt;&lt;b style=&quot;font-size: 16px;&quot;&gt;INFRASTRUCTURE&lt;/b&gt;&lt;/font&gt;" style="shape=ext;double=1;rounded=0;whiteSpace=wrap;html=1;labelPosition=center;verticalLabelPosition=bottom;align=center;verticalAlign=top;" vertex="1" parent="1">
          <mxGeometry x="550" y="60" width="400" height="180" as="geometry" />
        </mxCell>
        <mxCell id="i_BdbYn4SVfui-p-9MxM-8" value="" style="sketch=0;points=[[0,0,0],[0.25,0,0],[0.5,0,0],[0.75,0,0],[1,0,0],[0,1,0],[0.25,1,0],[0.5,1,0],[0.75,1,0],[1,1,0],[0,0.25,0],[0,0.5,0],[0,0.75,0],[1,0.25,0],[1,0.5,0],[1,0.75,0]];outlineConnect=0;fontColor=#232F3E;fillColor=#7AA116;strokeColor=#ffffff;dashed=0;verticalLabelPosition=bottom;verticalAlign=top;align=center;html=1;fontSize=12;fontStyle=0;aspect=fixed;shape=mxgraph.aws4.resourceIcon;resIcon=mxgraph.aws4.s3;rotation=0;" vertex="1" parent="1">
          <mxGeometry x="590" y="80" width="50" height="50" as="geometry" />
        </mxCell>
        <mxCell id="i_BdbYn4SVfui-p-9MxM-10" value="" style="outlineConnect=0;dashed=0;verticalLabelPosition=bottom;verticalAlign=top;align=center;html=1;shape=mxgraph.aws3.codepipeline;fillColor=#759C3E;gradientColor=none;rotation=0;" vertex="1" parent="1">
          <mxGeometry x="652.5" y="141.5" width="67.5" height="81" as="geometry" />
        </mxCell>
        <mxCell id="i_BdbYn4SVfui-p-9MxM-11" value="" style="sketch=0;outlineConnect=0;fontColor=#232F3E;gradientColor=none;fillColor=#DD344C;strokeColor=none;dashed=0;verticalLabelPosition=bottom;verticalAlign=top;align=center;html=1;fontSize=12;fontStyle=0;aspect=fixed;pointerEvents=1;shape=mxgraph.aws4.role;" vertex="1" parent="1">
          <mxGeometry x="690" y="80" width="78" height="44" as="geometry" />
        </mxCell>
        <mxCell id="i_BdbYn4SVfui-p-9MxM-12" value="" style="sketch=0;outlineConnect=0;fontColor=#232F3E;gradientColor=none;fillColor=#DD344C;strokeColor=none;dashed=0;verticalLabelPosition=bottom;verticalAlign=top;align=center;html=1;fontSize=12;fontStyle=0;aspect=fixed;pointerEvents=1;shape=mxgraph.aws4.role;" vertex="1" parent="1">
          <mxGeometry x="810" y="80" width="78" height="44" as="geometry" />
        </mxCell>
        <mxCell id="i_BdbYn4SVfui-p-9MxM-13" value="" style="sketch=0;points=[[0,0,0],[0.25,0,0],[0.5,0,0],[0.75,0,0],[1,0,0],[0,1,0],[0.25,1,0],[0.5,1,0],[0.75,1,0],[1,1,0],[0,0.25,0],[0,0.5,0],[0,0.75,0],[1,0.25,0],[1,0.5,0],[1,0.75,0]];outlineConnect=0;fontColor=#232F3E;fillColor=#ED7100;strokeColor=#ffffff;dashed=0;verticalLabelPosition=bottom;verticalAlign=top;align=center;html=1;fontSize=12;fontStyle=0;aspect=fixed;shape=mxgraph.aws4.resourceIcon;resIcon=mxgraph.aws4.lambda;" vertex="1" parent="1">
          <mxGeometry x="775" y="143" width="78" height="78" as="geometry" />
        </mxCell>
        <mxCell id="i_BdbYn4SVfui-p-9MxM-15" style="edgeStyle=orthogonalEdgeStyle;rounded=0;orthogonalLoop=1;jettySize=auto;html=1;entryX=0;entryY=0.5;entryDx=0;entryDy=0;entryPerimeter=0;" edge="1" parent="1" source="i_BdbYn4SVfui-p-9MxM-4" target="i_BdbYn4SVfui-p-9MxM-2">
          <mxGeometry relative="1" as="geometry" />
        </mxCell>
      </root>
    </mxGraphModel>
  </diagram>
</mxfile>
